{
  "accessors": [
    {
      "bufferView": 2,
      "componentType": 5126,
      "count": 88,
      "max": [
        1.6206588745117188,
        1.4304903745651245,
        0.19688951969146729
      ],
      "min": [
        -1.816550850868225,
        -1.0587958097457886,
        -0.19688951969146729
      ],
      "type": "VEC3"
    },
    {
      "bufferView": 2,
      "byteOffset": 1056,
      "componentType": 5126,
      "count": 88,
      "max": [
        6.558805409895285e-08,
        4.929869845682333e-08,
        1.0
      ],
      "min": [
        -5.6687121663401285e-09,
        4.48388703944147e-08,
        -1.0
      ],
      "type": "VEC3"
    },
    {
      "bufferView": 1,
      "componentType": 5126,
      "count": 88,
      "max": [
        0.0,
        0.0
      ],
      "min": [
        0.0,
        0.0
      ],
      "type": "VEC2"
    },
    {
      "bufferView": 0,
      "componentType": 5125,
      "count": 192,
      "type": "SCALAR"
    },
    {
      "bufferView": 2,
      "byteOffset": 2112,
      "componentType": 5126,
      "count": 134,
      "max": [
        2.5369317531585693,
        1.123483657836914,
        0.19688954949378967
      ],
      "min": [
        -0.8844529986381531,
        -1.6838867664337158,
        -0.19688954949378967
      ],
      "type": "VEC3"
    },
    {
      "bufferView": 2,
      "byteOffset": 3720,
      "componentType": 5126,
      "count": 134,
      "max": [
        1.0,
        1.0,
        1.0
      ],
      "min": [
        -5.980527362225985e-08,
        -1.0,
        -1.0
      ],
      "type": "VEC3"
    },
    {
      "bufferView": 1,
      "byteOffset": 704,
      "componentType": 5126,
      "count": 134,
      "max": [
        0.0,
        0.0
      ],
      "min": [
        0.0,
        0.0
      ],
      "type": "VEC2"
    },
    {
      "bufferView": 0,
      "byteOffset": 768,
      "componentType": 5125,
      "count": 246,
      "type": "SCALAR"
    },
    {
      "bufferView": 2,
      "byteOffset": 5328,
      "componentType": 5126,
      "count": 70,
      "max": [
        1.9324132204055786,
        0.8228069543838501,
        0.1968894898891449
      ],
      "min": [
        -2.140965223312378,
        -0.43370485305786133,
        -0.1968894898891449
      ],
      "type": "VEC3"
    },
    {
      "bufferView": 2,
      "byteOffset": 6168,
      "componentType": 5126,
      "count": 70,
      "max": [
        6.91009915954055e-08,
        5.131123259616288e-08,
        1.0
      ],
      "min": [
        -2.4478950422235357e-08,
        4.478131643281813e-08,
        -1.0
      ],
      "type": "VEC3"
    },
    {
      "bufferView": 1,
      "byteOffset": 1776,
      "componentType": 5126,
      "count": 70,
      "max": [
        0.0,
        0.0
      ],
      "min": [
        0.0,
        0.0
      ],
      "type": "VEC2"
    },
    {
      "bufferView": 0,
      "byteOffset": 1752,
      "componentType": 5125,
      "count": 126,
      "type": "SCALAR"
    },
    {
      "bufferView": 2,
      "byteOffset": 7008,
      "componentType": 5126,
      "count": 78,
      "max": [
        1.8944330215454102,
        1.7533221244812012,
        0.19688951969146729
      ],
      "min": [
        -2.1378002166748047,
        -1.0730384588241577,
        -0.19688951969146729
      ],
      "type": "VEC3"
    },
    {
      "bufferView": 2,
      "byteOffset": 7944,
      "componentType": 5126,
      "count": 78,
      "max": [
        3.7833967070355357e-08,
        5.145501091874394e-08,
        1.0
      ],
      "min": [
        -3.656988667444239e-08,
        3.932643011239634e-08,
        -1.0
      ],
      "type": "VEC3"
    },
    {
      "bufferView": 1,
      "byteOffset": 2336,
      "componentType": 5126,
      "count": 78,
      "max": [
        0.0,
        0.0
      ],
      "min": [
        0.0,
        0.0
      ],
      "type": "VEC2"
    },
    {
      "bufferView": 0,
      "byteOffset": 2256,
      "componentType": 5125,
      "count": 126,
      "type": "SCALAR"
    },
    {
      "bufferView": 2,
      "byteOffset": 8880,
      "componentType": 5126,
      "count": 46,
      "max": [
        1.9324132204055786,
        0.5094704627990723,
        0.19688951969146729
      ],
      "min": [
        -0.6059314012527466,
        -1.0730384588241577,
        -0.19688951969146729
      ],
      "type": "VEC3"
    },
    {
      "bufferView": 2,
      "byteOffset": 9432,
      "componentType": 5126,
      "count": 46,
      "max": [
        1.0894434687713783e-08,
        4.792008923004687e-08,
        1.0
      ],
      "min": [
        -5.447216899767682e-09,
        4.792008212461951e-08,
        -1.0
      ],
      "type": "VEC3"
    },
    {
      "bufferView": 1,
      "byteOffset": 2960,
      "componentType": 5126,
      "count": 46,
      "max": [
        0.0,
        0.0
      ],
      "min": [
        0.0,
        0.0
      ],
      "type": "VEC2"
    },
    {
      "bufferView": 0,
      "byteOffset": 2760,
      "componentType": 5125,
      "count": 126,
      "type": "SCALAR"
    },
    {
      "bufferView": 2,
      "byteOffset": 9984,
      "componentType": 5126,
      "count": 32,
      "max": [
        1.6190764904022217,
        -0.11087297648191452,
        0.19688953459262848
      ],
      "min": [
        -2.1346352100372314,
        -1.3863751888275146,
        -0.19688953459262848
      ],
      "type": "VEC3"
    },
    {
      "bufferView": 2,
      "byteOffset": 10368,
      "componentType": 5126,
      "count": 32,
      "max": [
        0.0,
        7.074313401744803e-08,
        1.0
      ],
      "min": [
        -8.560474995533696e-09,
        4.4733408088859505e-08,
        -1.0
      ],
      "type": "VEC3"
    },
    {
      "bufferView": 1,
      "byteOffset": 3328,
      "componentType": 5126,
      "count": 32,
      "max": [
        0.0,
        0.0
      ],
      "min": [
        0.0,
        0.0
      ],
      "type": "VEC2"
    },
    {
      "bufferView": 0,
      "byteOffset": 3264,
      "componentType": 5125,
      "count": 48,
      "type": "SCALAR"
    },
    {
      "bufferView": 2,
      "byteOffset": 10752,
      "componentType": 5126,
      "count": 38,
      "max": [
        2.2425849437713623,
        0.8228069543838501,
        0.19688953459262848
      ],
      "min": [
        -1.1993721723556519,
        -1.3863751888275146,
        -0.19688953459262848
      ],
      "type": "VEC3"
    },
    {
      "bufferView": 2,
      "byteOffset": 11208,
      "componentType": 5126,
      "count": 38,
      "max": [
        5.560331572951327e-08,
        4.815673193547809e-08,
        1.0
      ],
      "min": [
        -2.3370221313712136e-08,
        4.505093542661598e-08,
        -1.0
      ],
      "type": "VEC3"
    },
    {
      "bufferView": 1,
      "byteOffset": 3584,
      "componentType": 5126,
      "count": 38,
      "max": [
        0.0,
        0.0
      ],
      "min": [
        0.0,
        0.0
      ],
      "type": "VEC2"
    },
    {
      "bufferView": 0,
      "byteOffset": 3456,
      "componentType": 5125,
      "count": 66,
      "type": "SCALAR"
    },
    {
      "bufferView": 2,
      "byteOffset": 11664,
      "componentType": 5126,
      "count": 14,
      "max": [
        -0.24828432500362396,
        -0.43370485305786133,
        0.19688953459262848
      ],
      "min": [
        -0.8844529986381531,
        -1.3863751888275146,
        -0.19688953459262848
      ],
      "type": "VEC3"
    },
    {
      "bufferView": 2,
      "byteOffset": 11832,
      "componentType": 5126,
      "count": 14,
      "max": [
        0.0,
        4.710730650003825e-08,
        1.0
      ],
      "min": [
        0.0,
        4.710729939461089e-08,
        -1.0
      ],
      "type": "VEC3"
    },
    {
      "bufferView": 1,
      "byteOffset": 3888,
      "componentType": 5126,
      "count": 14,
      "max": [
        0.0,
        0.0
      ],
      "min": [
        0.0,
        0.0
      ],
      "type": "VEC2"
    },
    {
      "bufferView": 0,
      "byteOffset": 3720,
      "componentType": 5125,
      "count": 30,
      "type": "SCALAR"
    },
    {
      "bufferView": 2,
      "byteOffset": 12000,
      "componentType": 5126,
      "count": 236,
      "max": [
        1.8944330215454102,
        2.0508337020874023,
        0.19688954949378967
      ],
      "min": [
        -2.4543020725250244,
        -1.6838867664337158,
        -0.19688954949378967
      ],
      "type": "VEC3"
    },
    {
      "bufferView": 2,
      "byteOffset": 14832,
      "componentType": 5126,
      "count": 236,
      "max": [
        1.0,
        1.0,
        1.0
      ],
      "min": [
        -1.0,
        -1.0,
        -1.0
      ],
      "type": "VEC3"
    },
    {
      "bufferView": 1,
      "byteOffset": 4000,
      "componentType": 5126,
      "count": 236,
      "max": [
        0.0,
        0.0
      ],
      "min": [
        0.0,
        0.0
      ],
      "type": "VEC2"
    },
    {
      "bufferView": 0,
      "byteOffset": 3840,
      "componentType": 5125,
      "count": 414,
      "type": "SCALAR"
    }
  ],
  "asset": {
    "extras": {
      "author": "MythicaI (https://sketchfab.com/MythicaI)",
      "license": "CC-BY-4.0 (http://creativecommons.org/licenses/by/4.0/)",
      "source": "https://sketchfab.com/3d-models/minecraft-iron-ingot-27a0d9d436b54680a3d4b95edf8a7128",
      "title": "Minecraft Iron Ingot"
    },
    "generator": "Sketchfab-15.16.0",
    "version": "2.0"
  },
  "bufferViews": [
    {
      "buffer": 0,
      "byteLength": 5496,
      "name": "floatBufferViews",
      "target": 34963
    },
    {
      "buffer": 0,
      "byteLength": 5888,
      "byteOffset": 5496,
      "byteStride": 8,
      "name": "floatBufferViews",
      "target": 34962
    },
    {
      "buffer": 0,
      "byteLength": 17664,
      "byteOffset": 11384,
      "byteStride": 12,
      "name": "floatBufferViews",
      "target": 34962
    }
  ],
  "buffers": [
    {
      "byteLength": 29048,
      "uri": "scene.bin"
    }
  ],
  "extensionsUsed": [
    "KHR_materials_emissive_strength"
  ],
  "materials": [
    {
      "doubleSided": true,
      "emissiveFactor": [
        0.21586,
        0.21586,
        0.215861
      ],
      "name": "Material.002",
      "pbrMetallicRoughness": {
        "baseColorFactor": [
          0.686685,
          0.686685,
          0.686685,
          1.0
        ],
        "metallicFactor": 0.0,
        "roughnessFactor": 0.7828511364927276
      }
    },
    {
      "doubleSided": true,
      "name": "Material.005",
      "pbrMetallicRoughness": {
        "baseColorFactor": [
          0.0382043,
          0.0382043,
          0.0382044,
          1.0
        ],
        "metallicFactor": 0.0,
        "roughnessFactor": 0.9914572572022794
      }
    },
    {
      "doubleSided": true,
      "emissiveFactor": [
        0.982249,
        0.98225,
        0.982251
      ],
      "extensions": {
        "KHR_materials_emissive_strength": {
          "emissiveStrength": 4.5
        }
      },
      "name": "Material.003",
      "pbrMetallicRoughness": {
        "baseColorFactor": [
          0.0,
          0.0,
          0.0,
          1.0
        ],
        "metallicFactor": 0.0
      }
    },
    {
      "doubleSided": true,
      "name": "Material.008",
      "pbrMetallicRoughness": {
        "baseColorFactor": [
          0.381326,
          0.381326,
          0.381326,
          1.0
        ],
        "metallicFactor": 0.0,
        "roughnessFactor": 0.9147329142411915
      }
    },
    {
      "doubleSided": true,
      "name": "Material.004",
      "pbrMetallicRoughness": {
        "baseColorFactor": [
          0.168269,
          0.168269,
          0.168269,
          1.0
        ],
        "metallicFactor": 0.0,
        "roughnessFactor": 0.9467886700401127
      }
    },
    {
      "doubleSided": true,
      "name": "Material.007",
      "pbrMetallicRoughness": {
        "baseColorFactor": [
          0.21586,
          0.21586,
          0.215861,
          1.0
        ],
        "metallicFactor": 0.0,
        "roughnessFactor": 0.9517322204932788
      }
    },
    {
      "doubleSided": true,
      "name": "Material.006",
      "pbrMetallicRoughness": {
        "baseColorFactor": [
          0.386429,
          0.386429,
          0.38643,
          1.0
        ],
        "metallicFactor": 0.0,
        "roughnessFactor": 0.9135918326078626
      }
    },
    {
      "doubleSided": true,
      "name": "Material.009",
      "pbrMetallicRoughness": {
        "baseColorFactor": [
          0.219526,
          0.219526,
          0.219526,
          1.0
        ],
        "metallicFactor": 0.0,
        "roughnessFactor": 0.9509124941171381
      }
    },
    {
      "doubleSided": true,
      "name": "Material.001",
      "pbrMetallicRoughness": {
        "baseColorFactor": [
          0.119538,
          0.119538,
          0.119538,
          1.0
        ],
        "metallicFactor": 0.0,
        "roughnessFactor": 0.9621987653058792
      }
    }
  ],
  "meshes": [
    {
      "name": "Plane.002_Material.002_0",
      "primitives": [
        {
          "attributes": {
            "NORMAL": 1,
            "POSITION": 0,
            "TEXCOORD_0": 2
          },
          "indices": 3,
          "material": 0,
          "mode": 4
        }
      ]
    },
    {
      "name": "Plane.002_Material.005_0",
      "primitives": [
        {
          "attributes": {
            "NORMAL": 5,
            "POSITION": 4,
            "TEXCOORD_0": 6
          },
          "indices": 7,
          "material": 1,
          "mode": 4
        }
      ]
    },
    {
      "name": "Plane.002_Material.003_0",
      "primitives": [
        {
          "attributes": {
            "NORMAL": 9,
            "POSITION": 8,
            "TEXCOORD_0": 10
          },
          "indices": 11,
          "material": 2,
          "mode": 4
        }
      ]
    },
    {
      "name": "Plane.002_Material.008_0",
      "primitives": [
        {
          "attributes": {
            "NORMAL": 13,
            "POSITION": 12,
            "TEXCOORD_0": 14
          },
          "indices": 15,
          "material": 3,
          "mode": 4
        }
      ]
    },
    {
      "name": "Plane.002_Material.004_0",
      "primitives": [
        {
          "attributes": {
            "NORMAL": 17,
            "POSITION": 16,
            "TEXCOORD_0": 18
          },
          "indices": 19,
          "material": 4,
          "mode": 4
        }
      ]
    },
    {
      "name": "Plane.002_Material.007_0",
      "primitives": [
        {
          "attributes": {
            "NORMAL": 21,
            "POSITION": 20,
            "TEXCOORD_0": 22
          },
          "indices": 23,
          "material": 5,
          "mode": 4
        }
      ]
    },
    {
      "name": "Plane.002_Material.006_0",
      "primitives": [
        {
          "attributes": {
            "NORMAL": 25,
            "POSITION": 24,
            "TEXCOORD_0": 26
          },
          "indices": 27,
          "material": 6,
          "mode": 4
        }
      ]
    },
    {
      "name": "Plane.002_Material.009_0",
      "primitives": [
        {
          "attributes": {
            "NORMAL": 29,
            "POSITION": 28,
            "TEXCOORD_0": 30
          },
          "indices": 31,
          "material": 7,
          "mode": 4
        }
      ]
    },
    {
      "name": "Plane.002_Material.001_0",
      "primitives": [
        {
          "attributes": {
            "NORMAL": 33,
            "POSITION": 32,
            "TEXCOORD_0": 34
          },
          "indices": 35,
          "material": 8,
          "mode": 4
        }
      ]
    }
  ],
  "nodes": [
    {
      "children": [
        1
      ],
      "matrix": [
        1.0,
        0.0,
        0.0,
        0.0,
        0.0,
        2.220446049250313e-16,
        -1.0,
        0.0,
        0.0,
        1.0,
        2.220446049250313e-16,
        0.0,
        0.0,
        0.0,
        0.0,
        1.0
      ],
      "name": "Sketchfab_model"
    },
    {
      "children": [
        2
      ],
      "matrix": [
        0.009999999776482582,
        0.0,
        0.0,
        0.0,
        0.0,
        0.0,
        0.009999999776482582,
        0.0,
        0.0,
        -0.009999999776482582,
        0.0,
        0.0,
        0.0,
        0.0,
        0.0,
        1.0
      ],
      "name": "f7929da6a8574838a9d3bf023db2a27f.fbx"
    },
    {
      "children": [
        3
      ],
      "name": "RootNode"
    },
    {
      "children": [
        4,
        5,
        6,
        7,
        8,
        9,
        10,
        11,
        12
      ],
      "matrix": [
        100.0,
        0.0,
        0.0,
        0.0,
        0.0,
        99.9999999999999,
        4.371138828673792e-06,
        0.0,
        0.0,
        -4.371138828673792e-06,
        99.9999999999999,
        0.0,
        -4.275157451629639,
        -17.728891372680664,
        -2.170217157981824e-06,
        1.0
      ],
      "name": "Plane.002"
    },
    {
      "mesh": 0,
      "name": "Plane.002_Material.002_0"
    },
    {
      "mesh": 1,
      "name": "Plane.002_Material.005_0"
    },
    {
      "mesh": 2,
      "name": "Plane.002_Material.003_0"
    },
    {
      "mesh": 3,
      "name": "Plane.002_Material.008_0"
    },
    {
      "mesh": 4,
      "name": "Plane.002_Material.004_0"
    },
    {
      "mesh": 5,
      "name": "Plane.002_Material.007_0"
    },
    {
      "mesh": 6,
      "name": "Plane.002_Material.006_0"
    },
    {
      "mesh": 7,
      "name": "Plane.002_Material.009_0"
    },
    {
      "mesh": 8,
      "name": "Plane.002_Material.001_0"
    }
  ],
  "scene": 0,
  "scenes": [
    {
      "name": "Sketchfab_Scene",
      "nodes": [
        0
      ]
    }
  ]
}
